HIERARCHY
ROOT hip
{
	OFFSET 0.000000 0.000000 0.000000 
	CHANNELS 6 Xposition Yposition Zposition Xrotation Zrotation Yrotation
	JOINT abdomen
	{
		OFFSET 0.000000 3.402643 0.000000 
		CHANNELS 3 Xrotation Zrotation Yrotation
		JOINT chest
		{
			OFFSET 0.000000 8.438565 -0.680529 
			CHANNELS 3 Xrotation Zrotation Yrotation
			JOINT neck
			{
				OFFSET 0.000000 10.207942 -0.272212 
				CHANNELS 3 Xrotation Zrotation Yrotation
				JOINT head
				{
					OFFSET 0.000000 3.130431 0.000000 
					CHANNELS 3 Xrotation Zrotation Yrotation
					End Site
					{
						OFFSET 0.000000 3.130435 0.000000 
					}
				}
			}
			JOINT lCollar
			{
				OFFSET 3.470700 6.669187 -0.816635 
				CHANNELS 3 Yrotation Zrotation Xrotation
				JOINT lShldr
				{
					OFFSET 3.198488 0.000000 0.000000 
					CHANNELS 3 Zrotation Yrotation Xrotation
					JOINT lForeArm
					{
						OFFSET 10.139888 0.000000 0.000000 
						CHANNELS 3 Yrotation Zrotation Xrotation
						JOINT lHand
						{
							OFFSET 8.370511 0.000000 0.000000 
							CHANNELS 3 Zrotation Yrotation Xrotation
							End Site
							{
								OFFSET 4.083176 0.000000 0.000000 
							}
						}
					}
				}
			}
			JOINT rCollar
			{
				OFFSET -3.470700 6.669187 -0.816635 
				CHANNELS 3 Yrotation Zrotation Xrotation
				JOINT rShldr
				{
					OFFSET -3.198488 0.000000 0.000000 
					CHANNELS 3 Zrotation Yrotation Xrotation
					JOINT rForeArm
					{
						OFFSET -10.139888 0.000000 0.000000 
						CHANNELS 3 Yrotation Zrotation Xrotation
						JOINT rHand
						{
							OFFSET -8.370511 0.000000 0.000000 
							CHANNELS 3 Zrotation Yrotation Xrotation
							End Site
							{
								OFFSET -4.083176 0.000000 0.000000 
							}
						}
					}
				}
			}
		}
	}
	JOINT lThigh
	{
		OFFSET 5.308129 -1.633274 1.361059 
		CHANNELS 3 Xrotation Zrotation Yrotation
		JOINT lShin
		{
			OFFSET -2.041588 -20.007561 0.000000 
			CHANNELS 3 Xrotation Zrotation Yrotation
			JOINT lFoot
			{
				OFFSET 0.000000 -19.190928 -1.224953 
				CHANNELS 3 Xrotation Yrotation Zrotation
				End Site
				{
					OFFSET 0.000000 -2.449906 4.627600 
				}
			}
		}
	}
	JOINT rThigh
	{
		OFFSET -5.308129 -1.633274 1.361059 
		CHANNELS 3 Xrotation Zrotation Yrotation
		JOINT rShin
		{
			OFFSET 2.041588 -20.007561 0.000000 
			CHANNELS 3 Xrotation Zrotation Yrotation
			JOINT rFoot
			{
				OFFSET 0.000000 -19.190928 -1.224953 
				CHANNELS 3 Xrotation Yrotation Zrotation
				End Site
				{
					OFFSET 0.000000 -2.449906 4.627600 
				}
			}
		}
	}
}
MOTION
Frames: 16
Frame Time: 0.011111
-40.546665 53.524509 -2.317600 4.148605 -6.691549 84.631439 15.251885 -6.337777 2.990806 -17.909544 1.641728 1.347488 -7.582359 -3.295512 -5.861125 20.819054 4.380658 -11.218517 -13.725516 -13.189672 -3.762996 -59.433559 -23.800480 16.159021 -54.647800 8.613287 10.067613 8.524705 12.647240 -36.253307 8.354301 9.292459 -1.514610 71.455040 21.069168 6.874518 53.037376 -8.343543 9.412806 -8.534408 -12.637552 23.011578 -1.364589 3.147918 0.758524 9.255911 -5.997180 -2.004169 -25.904959 1.197383 -1.615242 -7.126618 -11.159348 7.429777 12.115204 5.942779 2.404629 -21.292843 -7.247499 0.033891 
-40.573799 53.820713 -2.409844 3.850590 -9.969045 84.347382 11.045550 -5.616013 3.408351 -17.089045 1.700843 1.365795 -7.900246 -3.129085 -5.969786 21.167957 3.728082 -11.524611 -13.725516 -13.189672 -3.762996 -59.483543 -23.962816 16.796263 -54.943684 8.661894 10.198312 8.524705 12.647240 -35.999405 8.354301 9.292459 -1.514610 71.212532 20.744528 7.529130 53.425838 -8.409179 9.562455 -8.534408 -12.637552 23.285013 -5.449067 3.915987 1.087345 9.838044 -5.985610 -2.095384 -25.708744 1.247624 -1.628695 -11.428439 -10.532274 7.951854 13.068741 5.931548 2.548425 -21.324995 -7.280055 0.023271 
-40.604759 53.972328 -2.473043 3.536664 -11.770863 84.293900 8.762750 -5.139292 3.546110 -16.844730 1.802837 1.370195 -7.955340 -2.946953 -6.101382 21.338278 3.293938 -11.822640 -13.725516 -13.189672 -3.762996 -59.436962 -23.891827 17.739611 -55.334698 8.722231 10.362731 8.524705 12.647240 -35.686901 8.354301 9.292459 -1.514610 71.326950 20.425699 6.771866 54.195599 -8.544817 9.882946 -8.534408 -12.637552 20.960793 -7.738487 4.498625 1.071385 10.104606 -5.996878 -2.119966 -25.620352 1.277764 -1.620720 -13.736489 -10.037157 8.272151 13.569459 5.935526 2.593781 -21.341898 -7.436929 -0.040752 
-40.640190 53.976795 -2.510387 3.156688 -12.165942 84.487579 8.336496 -4.850253 3.514494 -17.069115 2.004916 1.345680 -8.048957 -2.741699 -6.245304 21.512506 2.781436 -12.156565 -13.725516 -13.189672 -3.762996 -59.448723 -23.813993 18.715412 -55.694416 8.776500 10.516982 8.524705 12.647240 -35.511116 8.354301 9.292459 -1.514610 71.391342 20.059557 6.033778 54.893333 -8.663703 10.184739 -8.534408 -12.637552 18.753765 -8.256812 4.918917 0.800214 10.075734 -5.987568 -2.126405 -25.679535 1.235821 -1.648174 -14.084068 -9.635004 8.308846 13.538384 5.932072 2.610267 -21.322342 -7.680330 -0.132424 
-40.644657 53.976795 -2.568798 2.861479 -12.484022 84.539856 7.899863 -4.540179 3.512752 -17.303316 2.196753 1.328425 -8.125401 -2.689445 -6.299676 21.772516 2.388053 -12.323086 -13.725516 -13.189672 -3.762996 -59.591522 -23.635178 19.476027 -56.022842 8.825410 10.659248 8.524705 12.647240 -35.393932 8.354301 9.292459 -1.514610 71.024490 19.775211 6.325480 54.734436 -8.636951 10.118660 -8.534408 -12.637552 18.167828 -8.509155 5.210642 0.529662 9.781915 -5.982648 -2.119077 -25.745445 1.389394 -1.557020 -14.300550 -9.352749 8.251730 13.442132 5.932645 2.601489 -21.358099 -7.704007 -0.127549 
-40.636673 53.978390 -2.638380 2.583708 -12.760726 84.539841 7.473063 -4.183806 3.481356 -17.537596 2.340227 1.297320 -7.951205 -2.776477 -6.292759 21.831615 2.288108 -12.339718 -13.725516 -13.189672 -3.762996 -59.761299 -23.321676 20.092993 -56.435520 8.880402 10.828008 8.524705 12.647240 -35.169323 8.354301 9.292459 -1.514610 70.649063 19.539185 6.773668 54.228054 -8.554146 9.902032 -8.534408 -12.637552 18.314312 -8.596425 5.483589 0.381541 9.355876 -5.984334 -2.052135 -25.800238 1.559317 -1.477787 -14.440688 -9.110089 8.225292 13.291876 5.934866 2.578810 -21.507103 -7.641145 -0.144843 
-40.637634 53.979347 -2.702537 2.282810 -12.970803 84.575371 7.173148 -3.850656 3.472876 -17.742619 2.472605 1.275612 -7.773731 -2.655557 -6.423200 21.576113 1.902146 -12.639194 -13.725516 -13.189672 -3.762996 -59.863434 -23.012934 20.750393 -56.912994 8.945848 11.039962 8.524705 12.647240 -34.925179 8.354301 9.292459 -1.514610 70.301788 19.475855 7.020488 53.805733 -8.480398 9.730799 -8.534408 -12.637552 18.548685 -8.655347 5.796166 0.320109 8.908531 -5.991780 -1.982755 -25.681341 1.620182 -1.484275 -14.446938 -8.825474 8.254864 13.025097 5.933836 2.534452 -21.545982 -7.687518 -0.153788 
-40.643696 53.994347 -2.756798 1.951332 -13.309394 84.629623 6.774197 -3.506236 3.510228 -17.898872 2.554564 1.262703 -7.808529 -2.428288 -6.601451 21.386557 1.335713 -13.078725 -13.725516 -13.189672 -3.762996 -59.879967 -22.704847 21.442755 -57.368721 9.000978 11.234105 8.524705 12.647240 -34.720104 8.354301 9.292459 -1.514610 70.028358 19.433867 7.097410 53.414906 -8.406272 9.562692 -8.534408 -12.637552 18.802591 -8.884386 6.199458 0.456543 8.493308 -5.994233 -1.905946 -25.449940 1.497149 -1.556484 -14.575690 -8.474879 8.474906 12.688796 5.941488 2.485758 -21.496195 -7.923215 -0.238949 
-40.641464 54.011265 -2.809782 1.633210 -13.706520 84.745560 6.238329 -3.165180 3.485488 -17.967243 2.567132 1.230825 -7.565025 -2.821446 -6.742616 21.008795 1.944068 -13.319167 -13.725516 -13.189672 -3.762996 -59.847752 -22.436010 22.002487 -57.709045 9.043431 11.381741 8.524705 12.647240 -34.544323 8.354301 9.292459 -1.514610 69.801575 19.458462 7.099744 52.847488 -8.305177 9.329277 -8.534408 -12.637552 18.997906 -9.225246 6.569966 0.622371 8.115708 -6.001790 -1.843683 -25.178526 1.391395 -1.640026 -14.728492 -8.171022 8.727374 12.315576 5.954710 2.434015 -21.508871 -8.258391 -0.333469 
-40.640827 54.020519 -2.862129 1.309430 -13.986923 84.946083 5.848768 -2.825908 3.433026 -18.006353 2.530233 1.198084 -7.272489 -3.121617 -6.910699 20.485933 2.521204 -13.623436 -13.725516 -13.189672 -3.762996 -59.805321 -22.275517 22.304482 -57.931156 9.066773 11.484962 8.524705 12.647240 -34.641979 8.354301 9.292459 -1.514610 69.890846 19.501825 6.036525 52.511097 -8.239911 9.184276 -8.534408 -12.637552 18.138533 -9.503872 6.888724 0.805507 7.823822 -6.000395 -1.817129 -24.867613 1.286362 -1.711279 -14.759472 -7.898308 8.893283 11.958475 5.952195 2.381606 -21.566771 -8.525306 -0.446659 
-40.640827 54.023396 -2.910326 0.987296 -14.158843 85.167404 5.596177 -2.494508 3.288234 -17.977047 2.473689 1.138229 -7.272767 -3.425817 -6.980253 20.435522 3.167313 -13.718410 -13.725516 -13.189672 -3.762996 -59.751575 -22.192917 22.311005 -58.080349 9.084093 11.542719 8.524705 12.647240 -34.866592 8.354301 9.292459 -1.514610 70.043846 19.624237 4.858452 52.217880 -8.186985 9.068116 -8.534408 -12.637552 16.956890 -9.686006 7.215663 1.026634 7.661764 -6.002929 -1.792467 -24.625845 1.015714 -1.866338 -14.705512 -7.636206 8.972092 11.685129 5.952381 2.356932 -21.634457 -8.766065 -0.522429 
-40.651360 54.016689 -2.973844 0.721836 -14.189951 85.286552 5.538606 -2.171551 3.181377 -17.889124 2.405900 1.090090 -7.428015 -3.589244 -7.021307 20.516008 3.505489 -13.809822 -13.725516 -13.189672 -3.762996 -59.710865 -22.203787 22.374056 -58.080185 9.084715 11.552464 8.524705 12.647240 -34.388069 8.354301 9.292459 -1.514610 69.999817 19.934107 4.056864 51.724258 -8.085526 8.862353 -8.534408 -12.637552 16.087751 -9.733438 7.448946 1.100111 7.603584 -6.014798 -1.758510 -24.547651 0.824871 -1.967920 -14.520420 -7.440988 8.979556 11.428578 5.960775 2.324987 -21.564030 -8.882500 -0.554621 
-40.668598 53.996906 -3.053321 0.487466 -14.013821 85.306473 5.763298 -1.846145 3.212939 -17.840374 2.288826 1.067123 -7.610263 -3.700398 -7.155789 20.537321 3.722175 -14.075713 -13.725516 -13.189672 -3.762996 -59.703564 -22.302679 22.390018 -57.963779 9.072439 11.495624 8.524705 12.647240 -34.124401 8.354301 9.292459 -1.514610 69.932693 20.319614 3.187122 51.199623 -7.973500 8.648952 -8.534408 -12.637552 15.257672 -9.554027 7.602095 1.183616 7.597583 -6.005708 -1.786373 -24.479195 0.787896 -1.980573 -14.155360 -7.283654 8.914629 11.213615 5.950886 2.285330 -21.414156 -8.899034 -0.527927 
-40.686787 53.975521 -3.125775 0.183013 -13.772126 85.379196 6.085312 -1.512629 3.240619 -17.840544 2.103941 1.048649 -7.518421 -3.495575 -7.335160 20.145792 3.608838 -14.427816 -13.725516 -13.189672 -3.762996 -59.621235 -22.434824 22.228182 -57.665653 9.035169 11.359611 8.524705 12.647240 -34.143932 8.354301 9.292459 -1.514610 69.936913 20.627033 2.411589 50.718456 -7.871432 8.457041 -8.534408 -12.637552 14.525248 -9.373412 7.830684 1.237946 7.687201 -6.002331 -1.785390 -24.488382 0.722360 -2.023182 -13.755805 -7.039747 8.835372 11.140968 5.963421 2.269473 -21.316542 -8.946394 -0.514598 
-40.711689 53.953815 -3.199826 -0.118961 -13.559293 85.439079 6.397057 -1.165427 3.299005 -17.860239 1.899896 1.028608 -7.408727 -3.420708 -7.477437 19.822378 3.719743 -14.698837 -13.725516 -13.189672 -3.762996 -59.542728 -22.587959 21.895409 -57.252037 8.987342 11.187769 8.524705 12.647240 -34.475964 8.354301 9.292459 -1.514610 69.872406 20.884331 1.926583 50.237740 -7.764135 8.257939 -8.534408 -12.637552 14.066267 -9.286491 8.065858 1.253223 7.822790 -6.001758 -1.817212 -24.556665 0.685694 -2.024276 -13.465025 -6.776717 8.872272 11.175668 5.961075 2.263125 -21.330847 -9.022183 -0.552048 
-40.747112 53.931473 -3.277069 -0.417631 -13.355967 85.454269 6.739424 -0.790476 3.363716 -17.850563 1.763151 1.022529 -7.398035 -3.610085 -7.581306 19.579594 3.972753 -14.923907 -13.725516 -13.189672 -3.762996 -59.521404 -22.774193 21.547190 -56.838390 8.934841 11.007765 8.524705 12.647240 -34.798229 8.354301 9.292459 -1.514610 69.691490 21.143568 1.656199 49.799191 -7.663069 8.080325 -8.534408 -12.637552 13.792827 -9.214697 8.306796 1.268107 8.011901 -5.994516 -1.823818 -24.634974 0.688306 -2.011279 -13.266490 -6.502287 8.918359 11.317440 5.963611 2.295094 -21.391268 -9.059480 -0.568819 
